<svg width="1440" height="480" viewBox="0 0 1440 480" fill="none" xmlns="http://www.w3.org/2000/svg">
<path fill-rule="evenodd" clip-rule="evenodd" d="M1169.59 3.15295C1168.86 4.91295 1168.35 15.8859 1168.46 27.5361C1168.58 39.1844 1168.62 70.3286 1168.56 96.7414L1168.45 144.766L1147.18 155.961L1125.92 167.156L1104.12 155.915L1082.32 144.673L1082.88 120.774L1083.43 96.8736L1104.91 85.6419L1126.39 74.4101L1126.42 49.0415L1126.44 23.671L1114.94 29.6448C1108.61 32.9317 1098.03 38.5843 1091.43 42.2089L1079.43 48.7974L1078.87 71.2388C1078.56 83.5809 1077.96 93.6803 1077.53 93.6803C1077.1 93.6803 1067.51 88.7526 1056.21 82.7312L1035.67 71.7802L1024.55 77.5576C1018.42 80.7362 1008.02 86.3007 1001.42 89.9253L989.413 96.5157L988.857 120.568L988.301 144.623L944.219 167.9L900.136 191.176L877.278 178.997L854.419 166.82L848.902 170.306C845.868 172.222 835.912 177.698 826.776 182.475L810.169 191.158L794.77 182.983C786.302 178.487 766.018 167.723 749.697 159.065L720.02 143.32L697.187 155.447C684.629 162.117 674.353 168.116 674.353 168.777C674.353 169.437 683.581 174.811 694.857 180.717C706.133 186.625 716.041 192.516 716.871 193.81C717.999 195.566 721.294 194.41 729.873 189.249C736.195 185.446 746.541 179.669 752.868 176.413L764.37 170.491V190.706C764.37 202.202 763.508 211.41 762.37 212.054C761.269 212.678 760.369 214.79 760.369 216.75C760.369 220.999 767.899 221.742 769.605 217.662C770.215 216.205 779.189 210.485 789.547 204.95L808.378 194.887V217.341V239.797L788.875 250.032C778.147 255.661 768.051 260.629 766.436 261.07C764.012 261.732 763.608 265.933 764.114 285.137C764.45 297.934 764.046 308.404 763.212 308.404C759.509 308.404 724.362 288.896 724.362 286.84C724.362 285.579 722.438 284.546 720.088 284.546C717.737 284.546 706.881 279.796 695.965 273.993L676.117 263.441L676.553 238.665C676.953 216.044 676.677 213.832 673.373 213.243C671.384 212.887 664.123 209.433 657.24 205.568C650.354 201.703 641.262 196.924 637.034 194.949L629.344 191.358L607.068 203.206L584.79 215.054L562.205 203.052L539.621 191.049L533.474 194.426C517.781 203.046 498.511 212.971 497.471 212.971C496.837 212.971 496.319 203.138 496.319 191.117V169.265L518.305 157.624C530.399 151.223 540.061 145.326 539.779 144.522C539.065 142.492 495.617 119.671 494.044 120.499C493.342 120.868 492.624 130.855 492.444 142.691C492.266 154.528 491.86 164.453 491.542 164.745C491.222 165.037 481.652 160.34 470.274 154.309L449.584 143.344L438.446 149.143C432.318 152.335 421.904 157.952 415.303 161.627L403.301 168.309L402.739 190.774C402.429 203.129 401.479 212.971 400.628 212.647C399.776 212.32 390.368 207.519 379.718 201.975L360.357 191.895L359.825 143.746L359.292 95.5963L314.59 119.414C290.003 132.514 269.639 143.232 269.339 143.232C269.039 143.232 258.755 137.879 246.487 131.338L224.181 119.442L201.218 131.6L178.258 143.757L178.216 167.811L178.174 191.866L158.842 201.96C148.21 207.512 138.776 212.329 137.88 212.665C136.984 213.003 136.25 203.347 136.25 191.209C136.25 179.073 135.574 168.779 134.749 168.336C133.091 167.444 89.5288 190.19 88.7586 192.349C88.4926 193.094 98.1684 198.939 110.263 205.34L132.249 216.981V240.476V263.971L111.761 274.718C100.493 280.628 90.661 285.717 89.9128 286.027C88.3285 286.684 48.3349 265.773 48.2729 264.257C48.2509 263.698 57.6787 258.33 69.2249 252.328C80.7711 246.327 90.2229 240.966 90.2289 240.416C90.2389 239.601 49.2391 217.266 43.782 215.113C42.9299 214.775 42.2317 225.602 42.2317 239.171V263.841L21.7278 274.46C-1.36863 286.42 -0.78452 286.068 0.507727 287.253C1.02983 287.734 10.6317 283.263 21.8458 277.321L42.2317 266.515V289.136V311.759L21.2217 322.47C7.83713 329.293 0.399707 334.149 0.727769 335.85C1.26387 338.622 39.2391 359.672 43.838 359.747C45.2723 359.771 55.0202 355.249 65.5002 349.697C75.9822 344.146 85.414 339.604 86.4622 339.604C87.5924 339.604 88.1385 348.363 87.8045 361.151L87.2403 382.699L72.2375 390.759C63.9859 395.191 53.8599 400.785 49.7332 403.189L42.2317 407.559V443.321C42.2317 465.938 42.9679 479.082 44.2321 479.082C45.3583 479.082 46.2325 473.927 46.2325 467.289V455.494L68.2027 443.89L90.1729 432.284L90.447 385.485C90.599 359.745 90.523 327.733 90.2789 314.345L89.8368 290.006L109.543 300.404C120.381 306.123 129.911 311.71 130.719 312.816C131.527 313.923 132.201 346.319 132.219 384.809L132.249 454.789L110.153 466.449C98.0004 472.863 88.8206 478.343 89.7548 478.627C90.689 478.914 101.061 474.076 112.805 467.878L134.155 456.61L155.151 467.845C166.7 474.026 177.298 479.062 178.704 479.037C180.108 479.013 171.132 473.558 158.754 466.917L136.25 454.842V433.01C136.25 421.002 136.758 411.178 137.382 411.178C140.002 411.178 173.393 430.171 174.857 432.495C176.944 435.811 182.083 435.758 183.485 432.405C184.675 429.56 219.656 410.607 223.766 410.582C226.707 410.563 226.543 412.228 226.275 385.026C226.157 373.167 226.667 363.462 227.407 363.462C229.874 363.462 264.09 382.152 266.501 384.817C268.537 387.068 269.473 386.955 273.076 384.017C277.531 380.381 308.715 363.462 310.959 363.462C311.687 363.462 312.283 373.315 312.283 385.358V407.253L290.279 418.767C278.177 425.099 268.275 430.768 268.275 431.366C268.275 431.964 278.177 437.633 290.279 443.965C302.382 450.298 312.283 456.413 312.283 457.553C312.283 459.076 312.876 459.085 314.508 457.588C315.94 456.274 316.616 447.349 316.408 432.509L316.084 409.471L334.378 419.389C344.44 424.843 353.907 430.802 355.418 432.63C357.318 434.928 358.318 442.744 358.658 457.977L359.152 480L359.789 458.091C360.157 445.448 361.377 435.132 362.675 433.697C364.343 431.852 364.325 430.661 362.609 429.087C361.111 427.712 360.293 419.134 360.293 404.784V382.605L354.792 379.724C312.057 357.334 274.276 336.68 274.276 335.709C274.276 335.037 283.278 329.768 294.28 324.004C305.282 318.239 314.284 312.84 314.284 312.009C314.284 311.176 304.382 305.314 292.28 298.98L270.275 287.468V264.691V241.913L274.776 244.611C277.253 246.094 284.678 250.053 291.279 253.406C297.881 256.76 305.808 261.099 308.899 263.05C311.987 264.999 315.01 266.139 315.616 265.582C316.74 264.553 316.586 216.308 315.456 215.271C315.116 214.957 295.296 225.049 271.414 237.694C247.533 250.341 227.603 260.688 227.129 260.688C226.655 260.688 226.267 250.814 226.267 238.746V216.803L240.116 209.383C247.733 205.302 257.859 200.104 262.62 197.832L271.276 193.701L270.609 169.992L269.943 146.28L274.61 149.017C277.177 150.52 297.153 161.157 319.001 172.651L358.722 193.551L357.966 218.861C357.278 241.814 357.528 244.171 360.639 244.171C362.525 244.171 372.671 248.792 383.185 254.439L402.301 264.707V288.262V311.82L380.296 323.334C368.194 329.666 358.3 335.298 358.308 335.849C358.316 336.399 368.218 342.088 380.312 348.49L402.301 360.131V384.628C402.301 407.618 403.875 414.665 407.68 408.717C408.572 407.322 418.528 401.349 429.806 395.441C441.082 389.535 450.31 384.224 450.31 383.64C450.31 383.057 440.408 377.355 428.306 370.968L406.301 359.356V289.835C406.301 251.598 406.842 220.312 407.502 220.312C408.162 220.312 417.702 224.946 428.7 230.61L448.696 240.906L448.267 265.938C447.387 317.347 448.115 336.245 450.956 335.608C455.185 334.661 540.327 289.398 540.327 288.099C540.327 287.451 520.977 276.684 497.329 264.169C473.678 251.657 454.325 240.885 454.321 240.234C454.311 239.142 492.786 218.477 494.832 218.477C497.047 218.477 531.771 237.553 535.84 241.005L540.355 244.835L544.158 241.091C548.475 236.839 580.237 219.611 581.545 220.812C582.983 222.129 583.429 356.121 581.995 356.121C581.259 356.121 571.503 351.241 560.317 345.278L539.979 334.435L518.649 345.496C506.917 351.58 496.149 357.42 494.718 358.475C492.842 359.859 492.17 366.073 492.308 380.739C492.412 391.928 491.944 402.795 491.268 404.885C490.498 407.265 482.246 412.744 469.173 419.552C457.699 425.532 448.319 430.841 448.333 431.353C448.345 431.865 458.023 437.336 469.838 443.51L491.318 454.738L491.91 466.909C492.666 482.485 496.319 482.867 496.319 467.37V455.659L518.323 444.047C530.425 437.661 540.327 431.94 540.327 431.335C540.327 430.729 531.285 425.436 520.235 419.571C509.185 413.707 500.455 408.053 500.834 407.008C501.926 404.004 534.836 387.432 539.827 387.373C542.304 387.344 544.328 386.252 544.328 384.949C544.328 383.644 550.405 379.384 557.831 375.483C565.256 371.579 574.034 366.925 577.334 365.137L583.335 361.887L582.687 385.615C582.039 409.389 582.869 412.29 588.92 407.385C590.249 406.307 600.529 400.526 611.763 394.538L632.189 383.649L632.015 360.902C631.919 348.389 631.275 337.315 630.586 336.291C629.852 335.201 621.053 338.908 609.334 345.245C598.336 351.193 588.662 356.073 587.836 356.09C587.01 356.106 586.336 335.964 586.336 311.328V266.535L606.84 277.339C618.116 283.283 628.476 288.161 629.858 288.182C631.241 288.2 641.593 283.335 652.863 277.367L673.353 266.518L673.921 286.739C674.303 300.393 673.715 307.817 672.104 309.595C670.3 311.592 670.284 312.746 672.036 314.354C673.539 315.732 674.353 324.384 674.353 338.981V361.483L718.861 337.906L763.37 314.33L763.942 333.845C764.294 345.821 763.646 354.853 762.262 357.222C761.023 359.345 753.114 364.644 744.686 368.997C736.259 373.348 726.887 378.481 723.862 380.405L718.361 383.899V407.704V431.507L726.863 436.172C731.538 438.738 741.666 444.299 749.367 448.527L763.37 456.219L764.524 468.109L765.68 480L766.024 467.961L766.37 455.922L788.875 443.998L811.379 432.076L811.941 409.697C812.249 397.39 812.933 387.32 813.457 387.32C813.984 387.32 823.183 391.985 833.901 397.685C844.617 403.388 854.287 408.029 855.387 408C856.488 407.972 866.1 403.307 876.748 397.634C887.396 391.961 896.621 387.32 897.252 387.32C897.882 387.32 898.396 397.23 898.396 409.343C898.396 425.748 899.034 431.36 900.896 431.346C902.272 431.335 911.948 426.706 922.4 421.057C932.852 415.41 942.678 410.602 944.236 410.372C946.537 410.035 946.981 405.584 946.595 386.709C946.315 373.009 946.897 363.462 948.011 363.462C949.053 363.462 958.619 368.118 969.269 373.809L988.633 384.156L988.001 406.385C987.653 418.611 986.929 429.832 986.391 431.322C985.738 433.128 987.059 434.26 990.345 434.713C995.376 435.409 1024.57 449.928 1030.92 454.892C1033.54 456.936 1034.42 460.42 1034.42 468.662C1034.42 474.729 1034.94 479.22 1035.57 478.64C1036.2 478.062 1036.65 461.996 1036.57 442.939L1036.42 408.291L1056.37 397.807C1067.34 392.038 1076.79 387.32 1077.37 387.32C1077.95 387.32 1078.43 397.093 1078.43 409.036C1078.43 420.982 1078.96 431.245 1079.62 431.843C1080.27 432.441 1088.6 428.701 1098.12 423.531C1107.65 418.359 1118.59 413.129 1122.44 411.907C1130.85 409.236 1131.5 405.526 1123.88 403.655C1115.54 401.609 1086.16 385.32 1086.94 383.174C1087.57 381.423 1167.98 337.867 1170.7 337.799C1173.66 337.726 1210.56 358.582 1210.04 360.028C1209.72 360.909 1200.45 366.418 1189.45 372.273L1169.45 382.917L1168.88 405.663C1168.57 418.174 1168.75 429.45 1169.28 430.72C1169.94 432.289 1177.35 429.246 1192.35 421.245L1214.46 409.459L1214.84 444.728C1215.05 464.129 1215.55 474.795 1215.94 468.432C1216.74 455.398 1215.9 456.151 1248.08 439.625C1255.94 435.587 1262.39 431.871 1262.41 431.366C1262.42 430.861 1254.57 426.392 1244.95 421.434C1214.17 405.566 1216.46 408.387 1216.46 386.364C1216.46 375.881 1217.42 365.365 1218.6 362.996C1220.64 358.881 1253.58 339.668 1260.1 338.791C1262.63 338.449 1263.05 334.573 1262.74 314.677C1262.54 301.638 1263.07 290.065 1263.92 288.958C1265.4 287.033 1303.72 266.194 1305.78 266.194C1307.82 266.194 1346.48 286.943 1346.44 288.017C1346.38 290.079 1309.99 308.404 1305.97 308.404C1303.78 308.404 1293.97 304.159 1284.17 298.971C1274.38 293.783 1265.9 289.964 1265.33 290.483C1264.76 291.002 1272.87 295.866 1283.35 301.293C1293.82 306.718 1302.41 312.19 1302.43 313.451C1302.49 316.654 1307.92 316.325 1309.95 312.996C1311.63 310.252 1344.97 291.887 1348.27 291.887C1351.22 291.887 1351.03 330.908 1348.07 334.335C1345.19 337.665 1311.05 356.369 1306.81 356.939C1302.87 357.47 1302.86 409.818 1306.79 410.378C1310.25 410.872 1344.4 428.958 1348.98 432.728C1350.91 434.31 1352.52 434.858 1352.57 433.944C1352.63 433.03 1352.59 411.035 1352.49 385.063L1352.31 337.843L1371.57 348.048C1382.17 353.66 1391.25 357.872 1391.75 357.409C1392.26 356.947 1385.2 352.61 1376.08 347.774C1350.82 334.391 1352.48 336.977 1352.48 311.067V288.604L1372.97 277.857C1384.24 271.947 1394.14 266.836 1394.97 266.5C1395.8 266.164 1406.07 270.934 1417.78 277.099C1429.49 283.263 1439.48 287.93 1439.98 287.471C1440.48 287.011 1431.82 281.828 1420.73 275.955C1409.65 270.082 1400.56 264.836 1400.53 264.296C1400.51 263.756 1402.97 262.015 1405.99 260.424C1433.84 245.795 1440.66 241.873 1439.75 241.031C1439.16 240.495 1430.04 244.697 1419.47 250.372C1408.91 256.045 1399.87 260.688 1399.38 260.688C1398.89 260.688 1398.49 249.884 1398.49 236.677C1398.49 219.303 1397.85 212.861 1396.18 213.373C1394.54 213.872 1393.99 221.408 1394.31 238.902L1394.75 263.72L1373.62 274.876L1352.48 286.031L1352.53 265.559C1352.58 241.016 1352.72 240.797 1376.03 228.501C1385.13 223.702 1392.13 219.367 1391.58 218.87C1391.04 218.371 1382.54 222.23 1372.69 227.444C1362.85 232.658 1354.05 236.804 1353.14 236.659C1348.65 235.941 1346.48 237.158 1346.48 240.392C1346.48 242.352 1347.44 244.497 1348.61 245.162C1350.98 246.505 1350.66 282.393 1348.27 283.751C1347.48 284.197 1337.7 279.613 1326.53 273.562L1306.22 262.563L1283.5 274.63L1260.79 286.695L1240.65 275.986C1229.57 270.095 1220.5 264.834 1220.48 264.294C1220.47 263.753 1229.68 258.359 1240.96 252.304L1261.47 241.298L1262.05 219.336C1262.5 201.973 1263.34 196.533 1266.05 193.367C1269.38 189.466 1302.96 170.761 1306.63 170.761C1307.64 170.761 1308.47 169.522 1308.47 168.008C1308.47 166.494 1307 165.255 1305.2 165.255C1303.4 165.255 1293.05 160.525 1282.2 154.743L1262.47 144.23V121.497V98.7639L1266.97 101.445C1270.53 103.57 1334.67 137.945 1350.07 145.985C1385.78 164.625 1394.44 168.925 1396.29 168.925C1397.84 168.925 1398.49 154.693 1398.49 121.238V73.5512L1419.57 62.2718C1431.16 56.0668 1440.22 50.6033 1439.7 50.128C1439.19 49.6526 1429.93 53.8737 1419.13 59.5079L1399.49 69.7505L1398.91 50.9759C1398.59 40.6489 1398.81 30.4321 1399.39 28.272C1400.1 25.6458 1407.13 20.8796 1420.62 13.8726C1431.71 8.11179 1440.33 2.98594 1439.78 2.48125C1439.23 1.97656 1429.88 6.18662 1419.01 11.8355C1408.13 17.4844 1397.94 22.1056 1396.36 22.1037C1393.97 22.1037 1393.6 26.3487 1394.15 47.3384L1394.8 72.5749L1353.15 94.5979C1330.25 106.711 1310.47 116.87 1309.21 117.175C1307.59 117.568 1306.82 111.126 1306.6 95.2164C1306.42 82.8339 1306.1 72.5566 1305.88 72.3749C1305.66 72.195 1295.46 77.3355 1283.23 83.8011L1260.98 95.554L1222.22 75.1296C1200.9 63.896 1181.31 53.4755 1178.69 51.9706C1173.98 49.2654 1174.13 49.1241 1192.69 39.1128C1203.01 33.5465 1212.56 28.6005 1213.9 28.1233C1215.25 27.6462 1225.92 32.2912 1237.61 38.4448C1249.3 44.5984 1259.82 49.6343 1260.98 49.6343C1263.83 49.6343 1306.44 27.0185 1306.46 25.5008C1306.47 24.8438 1296.21 18.837 1283.66 12.153L1260.85 0L1238.38 12.0539L1215.91 24.1097L1197.68 14.5205C1187.65 9.24781 1177.53 3.81181 1175.19 2.44088C1171.47 0.264279 1170.76 0.354193 1169.59 3.15295ZM1212.09 24.9319C1212.81 25.4769 1175.28 45.9638 1173.56 45.9638C1172.95 45.9638 1172.45 36.5049 1172.45 24.9429V3.92009L1191.95 14.1846C1202.68 19.8299 1211.74 24.6657 1212.09 24.9319ZM1283.06 14.7646C1305.38 26.345 1305.81 24.2124 1278.21 38.7366L1260.95 47.8192L1240.73 37.2574C1229.6 31.447 1220.49 26.1266 1220.48 25.4347C1220.45 23.6178 1259.07 3.64664 1261.53 4.20455C1262.67 4.46149 1272.35 9.21294 1283.06 14.7646ZM1124.44 50.1206V72.63L1104.4 83.1551C1093.38 88.9435 1083.9 93.6803 1083.33 93.6803C1082.77 93.6803 1082.56 83.6781 1082.87 71.4554L1083.43 49.2305L1103.43 38.5053C1114.44 32.6069 1123.66 27.7434 1123.94 27.6957C1124.21 27.6498 1124.44 37.7401 1124.44 50.1206ZM1347.37 47.9587C1345.63 50.5501 1349.48 54.0884 1352.31 52.4863C1355.48 50.6877 1354.97 45.9638 1351.6 45.9638C1350.01 45.9638 1348.11 46.8612 1347.37 47.9587ZM1255.9 96.9158C1256.26 98.0426 1180.31 139.189 1174.36 141.09C1173.18 141.47 1172.45 124.538 1172.45 96.6919V51.6806L1213.96 73.6228C1236.79 85.6896 1255.66 96.1725 1255.9 96.9158ZM1056.75 85.774C1067.57 91.5183 1076.42 96.6791 1076.41 97.2443C1076.4 97.8077 1073.03 99.9568 1068.91 102.023C1064.8 104.088 1055.55 108.805 1048.37 112.506L1035.31 119.234L1015.73 109.025C1004.96 103.409 995.746 99.186 995.252 99.6411C994.758 100.094 1003.37 105.292 1014.39 111.19L1034.42 121.914V143.584C1034.42 155.502 1033.83 165.255 1033.1 165.255C1032.37 165.255 1022.92 160.555 1012.1 154.809L992.414 144.364L992.444 122.233C992.462 110.062 993.136 99.153 993.944 97.9912C995.57 95.6568 1032.35 75.5517 1035.24 75.414C1036.24 75.3663 1045.92 80.0278 1056.75 85.774ZM1303.75 116.981C1302.83 117.825 1266.95 99.5475 1265.6 97.5471C1265.16 96.8901 1273.5 91.7991 1284.13 86.231L1303.47 76.1096L1304.04 96.1505C1304.35 107.171 1304.22 116.546 1303.75 116.981ZM1393.7 164.754C1392.72 165.659 1361.24 149.51 1355.98 145.399C1353 143.069 1352.48 139.325 1352.48 120.15V97.6389L1372.99 86.8623L1393.49 76.0876L1394.03 120.025C1394.32 144.192 1394.18 164.319 1393.7 164.754ZM357.434 188.676C356.558 189.48 333.383 177.7 290.665 154.737L272.048 144.73L314.67 122.22L357.292 99.709L357.828 143.766C358.124 167.997 357.946 188.207 357.434 188.676ZM1260.31 141.714C1260.44 170.645 1259.74 185.799 1258.14 189.115C1255.68 194.223 1252.8 196.047 1228.65 207.801L1213.84 215.012L1214.28 239.226L1214.71 263.441L1194.64 273.993C1183.6 279.798 1174.09 284.546 1173.51 284.546C1172.92 284.546 1172.45 263.956 1172.45 238.792V193.039L1194.45 181.524C1206.55 175.193 1216.46 169.401 1216.46 168.656C1216.46 167.909 1207.45 162.618 1196.43 156.897C1185.42 151.177 1176.03 145.935 1175.57 145.251C1174.98 144.366 1256.97 99.5604 1259.8 99.2264C1259.99 99.2044 1260.22 118.324 1260.31 141.714ZM1350.24 120.291C1350.47 131.899 1350.01 141.397 1349.2 141.397C1348.4 141.397 1338.84 136.774 1327.96 131.123L1308.18 120.851L1328.83 110.091C1340.19 104.174 1349.55 99.2998 1349.64 99.2594C1349.73 99.219 1350 108.683 1350.24 120.291ZM1078.43 122.852V144.68L1058.63 154.968C1047.73 160.626 1038.28 165.255 1037.62 165.255C1036.96 165.255 1036.42 155.508 1036.42 143.595V121.936L1055.93 111.51C1066.65 105.775 1076.1 101.069 1076.93 101.052C1077.76 101.036 1078.43 110.845 1078.43 122.852ZM245.995 133.88L266.725 144.665L251.996 152.45C243.896 156.732 234.361 161.836 230.804 163.792C227.249 165.749 223.648 166.991 222.802 166.556C221.958 166.119 212.426 161.023 201.62 155.231L181.976 144.7L201.62 134.063C212.426 128.212 222.166 123.353 223.266 123.261C224.367 123.169 234.595 127.948 245.995 133.88ZM535.2 145.21C534.436 146.396 498.735 165.255 497.257 165.255C496.741 165.255 496.319 155.803 496.319 144.251V123.248L516.101 133.698C526.983 139.446 535.576 144.627 535.2 145.21ZM0.223673 145.943C0.223673 146.425 9.2554 151.669 20.2935 157.596C35.1324 165.565 39.6952 168.852 37.7969 170.203C36.3846 171.208 27.3589 176.081 17.741 181.031C8.12119 185.98 0.243677 190.728 0.237676 191.582C0.229674 192.435 4.0484 191.103 8.7253 188.621C13.4002 186.14 23.3021 180.93 30.7295 177.045C38.1549 173.158 44.2321 169.404 44.2321 168.703C44.2321 167.452 3.64633 145.067 1.37989 145.067C0.743772 145.067 0.223673 145.462 0.223673 145.943ZM204.763 159.79C213.29 164.207 220.246 168.276 220.222 168.832C220.198 169.388 211.58 174.257 201.072 179.651C190.564 185.044 182.419 189.873 182.973 190.379C183.525 190.888 193.033 186.599 204.099 180.851L224.219 170.399L245.411 181.422L266.603 192.446L251.936 200.18C243.868 204.432 235.275 209.051 232.838 210.442C225.783 214.471 221.218 213.518 203.717 204.36C178.626 191.233 180.258 193.734 180.258 168.43V146.48L184.759 149.119C187.233 150.571 196.235 155.372 204.763 159.79ZM267.425 188.669C266.357 189.651 228.379 170.452 228.309 168.894C228.285 168.373 237.045 163.255 247.771 157.521L267.275 147.097L267.843 167.43C268.155 178.614 267.967 188.172 267.425 188.669ZM448.283 169.384L448.259 191.866L428.416 202.419C417.502 208.222 408.06 212.971 407.436 212.971C406.812 212.971 406.301 203.153 406.301 191.15V169.329L426.805 158.217C438.082 152.104 447.535 147.058 447.809 147.003C448.083 146.948 448.297 157.018 448.283 169.384ZM472.814 158.685L492.318 169.14V191.055C492.318 203.109 491.642 212.915 490.818 212.847C489.993 212.779 480.766 208 470.314 202.226L451.31 191.732L450.748 169.173C450.438 156.765 450.888 146.978 451.748 147.422C452.606 147.866 462.086 152.935 472.814 158.685ZM741.598 157.697L762.53 168.49L743.334 178.803C732.776 184.474 722.38 189.113 720.234 189.113C716.607 189.113 681.276 171.779 679.486 169.122C678.72 167.984 715.575 147.425 719.013 147.073C719.923 146.98 730.085 151.76 741.598 157.697ZM987.743 236.22C987.335 236.597 977.875 232.137 966.723 226.314L946.447 215.724L946.425 192.563L946.405 169.403L966.909 158.611L987.413 147.82L987.949 191.681C988.245 215.803 988.151 235.846 987.743 236.22ZM1037.9 168.158C1039.99 167.553 1049.96 162.574 1060.06 157.097L1078.43 147.139V170.878C1078.43 183.936 1079.19 194.619 1080.13 194.619C1081.06 194.619 1091.05 199.506 1102.31 205.478C1122.42 216.135 1122.71 216.389 1118.12 219.046C1115.54 220.534 1097.23 230.228 1077.43 240.588C1057.63 250.946 1040.07 260.185 1038.42 261.117C1036.25 262.343 1029.91 259.884 1015.42 252.189C1004.42 246.347 994.752 240.707 993.944 239.658C993.136 238.606 992.462 217.387 992.444 192.501L992.414 147.253L1013.26 158.257C1027.09 165.558 1035.39 168.891 1037.9 168.158ZM1124.44 191.189C1124.44 203.169 1123.85 212.971 1123.13 212.971C1121.14 212.971 1089.9 196.353 1085.93 193.18C1082.97 190.809 1082.43 187.06 1082.43 168.742V147.102L1103.43 158.255L1124.44 169.406V191.189ZM1192.87 157.842C1203.49 163.354 1211.79 168.424 1211.33 169.109C1210.87 169.794 1201.54 175.007 1190.59 180.693L1170.68 191.033L1150.56 180.465C1139.5 174.653 1130.44 169.359 1130.44 168.702C1130.44 166.914 1169.12 146.813 1171.51 147.354C1172.65 147.611 1182.26 152.329 1192.87 157.842ZM1301.34 169.127C1300.45 170.445 1265.09 189.113 1263.48 189.113C1262.92 189.113 1262.47 179.669 1262.47 168.125V147.137L1282.3 157.54C1293.21 163.26 1301.78 168.474 1301.34 169.127ZM131.471 212.461C130.969 212.922 123.961 209.822 115.9 205.572C88.5106 191.13 89.0327 193.96 111.547 181.97L131.249 171.478L131.817 191.55C132.129 202.591 131.975 212.001 131.471 212.461ZM793.162 185.092L806.952 192.406L799.163 196.849C787.122 203.718 769.025 212.971 767.627 212.971C766.937 212.971 766.37 203.406 766.37 191.716V170.462L772.872 174.121C776.448 176.132 785.578 181.069 793.162 185.092ZM854.055 200.585C853.687 210.428 854.113 218.481 854.999 218.479C857.91 218.475 894.395 238.841 894.395 240.469C894.395 241.675 863.945 258.963 856.256 262.125C855.561 262.411 845.404 257.553 833.685 251.332L812.379 240.019V216.444V192.866L832.883 181.84L853.387 170.812L854.055 176.751C854.423 180.018 854.423 190.743 854.055 200.585ZM881.893 184.398L898.396 193.105V214.968C898.396 226.991 897.722 236.811 896.895 236.787C896.069 236.765 886.844 232.018 876.391 226.235L857.388 215.724L856.824 192.993L856.26 170.261L860.824 172.978C863.335 174.47 872.815 179.61 881.893 184.398ZM943.526 212.553C942.968 213.065 934.331 209.152 924.333 203.858C914.333 198.565 905.719 194.628 905.193 195.113C904.665 195.597 922.498 205.704 944.823 217.574C967.147 229.445 986.074 240.078 986.883 241.205C988.591 243.585 988.967 284.546 987.281 284.546C984.66 284.546 951.27 265.553 949.806 263.23C947.997 260.357 942.404 259.761 942.404 262.44C942.404 263.404 932.952 269.26 921.4 275.456C909.848 281.65 900.396 287.405 900.396 288.244C900.396 289.967 944.352 313.202 946.499 312.614C950.504 311.517 986.457 291.314 985.676 290.599C985.17 290.136 976.001 294.396 965.299 300.065C954.594 305.734 945.233 310.135 944.491 309.847C939.388 307.857 904.473 288.938 904.439 288.143C904.351 286.075 941.038 268.029 945.331 268.029C950.026 268.029 984.32 285.238 986.883 288.881C987.691 290.03 988.365 301.025 988.383 313.314L988.413 335.658L970.041 345.304C959.935 350.608 949.81 355.144 947.537 355.381C945.263 355.62 942.73 355.884 941.904 355.968C941.078 356.051 940.404 357.189 940.404 358.494C940.404 361.586 906.897 379.239 900.396 379.573C897.484 379.722 887.46 375.453 876.391 369.351L857.388 358.874L856.824 337.163C856.382 320.216 856.82 315.586 858.824 316.057C862.567 316.94 896.375 334.852 896.339 335.933C896.321 336.438 887.71 341.264 877.202 346.658C866.694 352.052 858.548 356.881 859.102 357.387C860.442 358.617 900.396 337.805 900.396 335.878C900.396 335.05 892.137 330.036 882.041 324.736C855.301 310.698 856.388 312.315 856.388 286.576V264.747L876.021 254.459C886.82 248.801 897.422 244.171 899.582 244.171C903.323 244.171 903.481 243.002 902.859 219.854C902.5 206.48 902.925 194.586 903.801 193.424C904.679 192.264 913.949 186.777 924.401 181.234L943.404 171.155L943.972 191.389C944.284 202.518 944.084 212.043 943.526 212.553ZM1148.95 182.545L1168.45 193L1168.37 262.631C1168.33 300.929 1167.95 332.263 1167.53 332.263C1165.07 332.263 1131.27 313.159 1129.18 310.586C1127.26 308.228 1126.63 291.098 1126.55 239.014C1126.49 201.354 1127.11 170.889 1127.94 171.315C1128.76 171.741 1138.22 176.793 1148.95 182.545ZM177.466 237.912C176.629 239.913 140.048 260.688 137.362 260.688C136.75 260.688 136.25 250.796 136.25 238.707V216.724L156.754 205.711L177.258 194.696L177.828 215.192C178.14 226.464 177.978 236.688 177.466 237.912ZM205.763 208.257L222.266 216.963V264.52C222.266 301.357 222.83 312.067 224.767 312.044C226.143 312.027 236.269 307.143 247.271 301.192L267.275 290.369L267.847 309.935C268.201 322.009 267.553 330.989 266.155 333.386C264.908 335.522 254.962 342.008 244.05 347.798L224.211 358.327L202.734 346.827C190.922 340.503 180.298 335.327 179.126 335.326C177.954 335.324 168.326 340.002 157.734 345.72C147.14 351.441 137.972 356.121 137.362 356.121C136.75 356.121 136.25 346.682 136.25 335.146C136.25 319.407 136.964 313.517 139.11 311.548C140.683 310.106 150.566 304.471 161.072 299.03C171.578 293.587 180.192 288.675 180.216 288.116C180.24 287.556 170.812 282.188 159.266 276.187C147.72 270.185 138.268 264.817 138.262 264.257C138.256 263.698 147.696 258.33 159.242 252.328L180.236 241.418L180.246 217.807L180.258 194.197L184.759 196.874C187.233 198.346 196.687 203.468 205.763 208.257ZM386.298 208.337C393.449 212.118 399.962 216.152 400.77 217.303C402.293 219.472 402.947 260.688 401.459 260.688C398.972 260.688 365.166 241.64 362.989 239.012C361.257 236.923 360.399 229.133 360.357 215.115L360.293 194.32L366.794 197.893C370.369 199.859 379.146 204.559 386.298 208.337ZM470.372 205.104C481.342 210.87 490.308 216.033 490.298 216.574C490.286 217.115 481.164 222.318 470.028 228.134L449.78 238.709L436.541 231.955C429.262 228.241 419.8 223.192 415.517 220.734L407.732 216.266L427.52 205.511C438.404 199.598 448.009 194.727 448.868 194.689C449.724 194.65 459.402 199.337 470.372 205.104ZM560.605 205.131C571.457 210.912 580.335 216.08 580.335 216.616C580.335 218.477 543.342 236.83 539.589 236.83C536.022 236.83 522.934 230.634 505.564 220.725L497.807 216.301L517.567 205.553C528.435 199.644 538.125 194.766 539.101 194.714C540.077 194.661 549.753 199.348 560.605 205.131ZM628.344 217.141V239.663L608.614 250.176C597.762 255.958 588.31 260.688 587.61 260.688C586.91 260.688 586.336 250.842 586.336 238.808V216.93L606.84 205.937C618.116 199.892 627.57 194.872 627.844 194.782C628.118 194.692 628.344 204.755 628.344 217.141ZM653.521 206.594C666.133 213.404 672.666 218.075 673.411 220.817C674.021 223.063 674.257 233.535 673.937 244.088L673.353 263.276L651.728 274.961L630.104 286.644L610.201 276.214C599.254 270.477 589.933 265.245 589.489 264.584C589.044 263.923 598.28 258.342 610.012 252.18L631.345 240.975L631.797 219.173C632.045 207.183 632.269 197.164 632.297 196.913C632.441 195.549 636.464 197.383 653.521 206.594ZM1259.46 218.6V239.513L1237.96 250.952L1216.46 262.393V241.702C1216.46 227.973 1217.3 220.008 1218.96 218.02C1222.21 214.126 1254.86 196.421 1257.46 197.139C1258.65 197.464 1259.46 206.251 1259.46 218.6ZM1033.7 214.245C1031.45 216.312 1032.33 218.477 1035.42 218.477C1037.07 218.477 1038.42 217.701 1038.42 216.75C1038.42 214.436 1035.3 212.779 1033.7 214.245ZM82.2394 238.369C83.8897 239.305 84.7899 240.46 84.2398 240.937C81.9393 242.932 47.7188 260.827 47.1707 260.321C46.6166 259.809 45.6444 225.673 46.0504 220.938C46.1965 219.22 61.2014 226.448 82.2394 238.369ZM1124.32 263.441C1124.32 288.171 1123.75 308.404 1123.05 308.404C1120.12 308.404 1040.42 265.292 1040.9 263.967C1041.29 262.879 1121.54 218.962 1123.88 218.554C1124.13 218.512 1124.33 238.711 1124.32 263.441ZM312.283 240.5C312.283 251.603 311.783 260.688 311.171 260.688C310.561 260.688 301.479 256.056 290.993 250.392L271.924 240.096L290.603 230.259C300.877 224.849 309.959 220.399 310.783 220.367C311.607 220.338 312.283 229.397 312.283 240.5ZM716.335 237.777C713.396 241.023 715.437 244.171 720.48 244.171C722.956 244.171 724.362 242.912 724.362 240.696C724.362 236.255 719.357 234.435 716.335 237.777ZM268.247 264.817L268.219 287.299L249.083 297.393C238.557 302.944 229.12 307.762 228.107 308.098C227.053 308.448 226.267 299.316 226.267 286.708V264.707L246.771 253.595C258.047 247.485 267.501 242.451 267.775 242.411C268.049 242.368 268.263 252.451 268.247 264.817ZM477.815 256.856L492.318 264.52V288.103V311.686L473.064 321.974C462.474 327.632 453.022 332.263 452.06 332.263C449.286 332.263 449.898 292.999 452.71 290.419C454.577 288.707 454.577 287.727 452.71 286.014C451.124 284.559 450.31 276.722 450.31 262.923V242.036L456.811 245.613C460.386 247.58 469.838 252.64 477.815 256.856ZM806.08 285.976C804.034 289.485 771.601 308.404 767.633 308.404C765.092 308.404 766.27 266.419 768.871 264.3C770.247 263.18 779.473 257.959 789.375 252.701L807.378 243.137L807.95 262.462C808.326 275.128 807.682 283.228 806.08 285.976ZM834.441 254.655L854.387 265.14V286.405C854.387 300.498 853.577 308.413 851.987 309.872C850.12 311.585 850.12 312.565 851.987 314.277C853.579 315.738 854.381 323.619 854.371 337.677L854.355 358.874L832.429 370.48L810.505 382.088L790.377 371.632C779.307 365.881 769.377 359.679 768.309 357.851C767.243 356.023 766.37 345.062 766.37 333.494V312.462L786.174 302.174C797.066 296.516 807.676 291.887 809.753 291.887C813.299 291.887 813.477 290.448 812.717 268.029C812.271 254.907 812.489 244.171 813.201 244.171C813.912 244.171 823.471 248.889 834.441 254.655ZM1014.14 254.143C1032.52 263.821 1032.78 264.054 1028.14 266.643C1015.22 273.861 994.582 284.546 993.564 284.546C992.932 284.546 992.414 275.462 992.414 264.358C992.414 253.255 993.088 244.196 993.914 244.226C994.74 244.257 1003.84 248.718 1014.14 254.143ZM156.348 277.458C166.197 282.808 174.257 287.657 174.257 288.233C174.257 290.204 137.832 308.404 133.885 308.404C130.525 308.404 113.359 300.214 96.5521 290.59C91.9432 287.95 92.2093 287.712 111.555 277.194C122.387 271.305 132.867 266.766 134.843 267.108C136.82 267.451 146.498 272.107 156.348 277.458ZM533.136 285.878C536.444 287.516 534.434 289.118 517.831 298.083C507.317 303.759 498.177 308.404 497.517 308.404C496.859 308.404 496.319 298.922 496.319 287.332V266.26L512.822 275.128C521.9 280.006 531.039 284.843 533.136 285.878ZM716.961 289.409C717.841 290.771 719.874 291.887 721.478 291.887C724.981 291.887 760.369 310.113 760.369 311.917C760.369 312.611 753.392 316.801 744.866 321.227C736.341 325.652 717.479 335.632 702.952 343.406L676.541 357.539V312V266.462L695.951 276.697C706.627 282.325 716.081 288.046 716.961 289.409ZM1076.98 287.488C1099.23 299.201 1119.01 310.441 1120.94 312.468C1123.83 315.507 1124.44 319.761 1124.44 336.77C1124.44 354.139 1123.89 357.818 1120.94 360.123C1117.15 363.087 1085.32 379.979 1083.53 379.979C1082.92 379.979 1082.43 370.895 1082.43 359.791C1082.43 348.688 1083 339.604 1083.69 339.604C1084.39 339.604 1092.99 343.823 1102.81 348.978C1112.63 354.135 1121.12 357.941 1121.67 357.437C1122.22 356.932 1114.29 352.149 1104.05 346.809C1093.81 341.466 1084.71 336.01 1083.83 334.68C1082.95 333.351 1080.84 332.263 1079.13 332.263C1074.98 332.263 1038.42 312.433 1038.42 310.179C1038.42 309.203 1037.26 308.404 1035.83 308.404C1033.81 308.404 1033.42 313.348 1034.06 331.07C1034.59 345.689 1034.09 355.095 1032.65 357.569C1031.18 360.092 1031.1 361.793 1032.42 362.54C1033.57 363.194 1034.42 372.592 1034.42 384.591V405.505L1015.25 395.347C1004.7 389.761 995.626 385.595 995.086 386.09C994.24 386.868 1001.27 390.88 1028.92 405.408L1034.42 408.299V430.76V453.222L1016.92 444.003C1007.29 438.933 997.881 432.983 996.006 430.782C992.936 427.176 992.588 419.908 992.504 357.701L992.408 288.624L1012.92 277.51C1024.19 271.397 1034.12 266.35 1034.98 266.295C1035.83 266.239 1054.73 275.777 1076.98 287.488ZM1236.52 276.678C1247.49 282.445 1256.45 287.607 1256.44 288.149C1256.42 288.69 1247.39 293.935 1236.35 299.802L1216.29 310.471L1195.4 299.802C1183.92 293.935 1174.51 288.721 1174.5 288.217C1174.48 287.183 1212.59 266.629 1215.01 266.364C1215.87 266.271 1225.55 270.912 1236.52 276.678ZM68.2947 278.514L88.2405 288.998V310.63C88.2405 322.528 87.6224 332.263 86.8683 332.263C82.9675 332.263 46.4205 311.59 45.8724 309.074C44.9382 304.785 46.3225 268.029 47.4187 268.029C47.9308 268.029 57.3246 272.747 68.2947 278.514ZM300.779 306.167C306.004 308.911 310.279 311.57 310.281 312.075C310.283 313.13 273.632 332.263 271.612 332.263C270.878 332.263 270.275 322.749 270.275 311.12V289.978L280.777 295.576C286.553 298.655 295.554 303.422 300.779 306.167ZM1260 311.157C1259.98 322.765 1259.28 332.263 1258.43 332.263C1255.41 332.263 1220.42 313.088 1220.94 311.711C1221.31 310.708 1257.28 290.692 1259.75 290.118C1259.9 290.081 1260.02 299.549 1260 311.157ZM1194 301.728C1207.56 308.902 1211.87 312.027 1210.01 313.33C1205.78 316.283 1175.2 332.263 1173.77 332.263C1173.04 332.263 1172.45 323.178 1172.45 312.075C1172.45 300.972 1173.12 291.893 1173.95 291.898C1174.77 291.905 1183.8 296.328 1194 301.728ZM1374.91 321.697C1363.6 327.772 1354.78 333.149 1355.32 333.643C1355.86 334.138 1364.97 329.89 1375.56 324.202L1394.81 313.86L1394.15 337.746C1393.65 355.956 1394.08 361.63 1395.99 361.628C1397.87 361.627 1398.49 355.467 1398.49 336.959C1398.49 323.391 1397.82 311.922 1396.99 311.471C1396.17 311.02 1386.23 315.621 1374.91 321.697ZM64.388 324.263C75.3061 329.957 84.2398 335.149 84.2398 335.801C84.2398 336.452 75.212 341.731 64.1779 347.532L44.1181 358.077L30.6715 351.25C23.2781 347.495 13.7563 342.448 9.51345 340.033L1.79997 335.641L21.5158 324.967C32.3598 319.096 41.9757 314.206 42.8838 314.101C43.792 313.996 53.4679 318.568 64.388 324.263ZM1236.52 324.395C1247.49 330.161 1256.45 335.324 1256.43 335.865C1256.35 337.82 1219.83 356.121 1216 356.121C1212.22 356.121 1174.56 337.796 1174.51 335.933C1174.49 334.925 1212.5 314.446 1215.01 314.116C1215.87 314.002 1225.55 318.628 1236.52 324.395ZM402.301 335.933C402.301 347.036 401.819 356.121 401.228 356.121C398.548 356.121 364.339 336.724 364.798 335.463C365.346 333.953 398.264 316.017 400.8 315.846C401.625 315.791 402.301 324.83 402.301 335.933ZM1057.77 325.101C1067.48 330.247 1076.09 335.408 1076.9 336.572C1078.6 339.014 1078.91 375.396 1077.28 380.957C1076.6 383.279 1069.18 388.305 1057.64 394.263C1047.44 399.528 1038.49 403.837 1037.76 403.837C1035.27 403.837 1036.27 364.333 1038.82 361.994C1040.69 360.281 1040.69 359.301 1038.82 357.589C1035.95 354.954 1035.43 315.745 1038.26 315.745C1039.28 315.745 1048.05 319.955 1057.77 325.101ZM1148.52 325.362C1158.38 330.649 1166.44 335.399 1166.43 335.915C1166.42 336.429 1157.41 341.547 1146.42 347.286L1126.44 357.721V336.733C1126.44 323.479 1127.2 315.745 1128.51 315.745C1129.65 315.745 1138.65 320.073 1148.52 325.362ZM176.153 381.012C173.343 384.117 175.353 387.32 180.11 387.32C183.645 387.32 220.156 405.694 220.226 407.508C220.312 409.758 182.739 427.218 178.258 427.011C175.507 426.882 164.905 422.366 154.697 416.976L136.136 407.172L136.694 383.281L137.25 359.388L157.254 348.772L177.258 338.157L177.826 358.347C178.19 371.293 177.59 379.425 176.153 381.012ZM205.763 351.406L222.266 360.112V381.976C222.266 393.998 221.706 403.837 221.024 403.837C217.689 403.837 183.833 384.512 182.169 381.658C181.118 379.858 180.258 369.151 180.258 357.866V337.346L184.759 340.024C187.233 341.496 196.687 346.618 205.763 351.406ZM536.102 381.28C534.112 384.694 501.402 403.837 497.561 403.837C496.879 403.837 496.319 393.991 496.319 381.957V360.079L516.823 349.299L537.327 338.521L537.899 357.87C538.267 370.247 537.619 378.681 536.102 381.28ZM564.832 350.655C573.357 355.073 580.323 359.142 580.309 359.698C580.257 361.665 543.974 379.995 542.163 378.968C541.153 378.395 540.327 368.797 540.327 357.637V337.346L544.828 339.985C547.305 341.437 556.306 346.238 564.832 350.655ZM628.344 360.516V383.262L608.54 393.551C597.648 399.209 588.196 403.837 587.536 403.837C586.876 403.837 586.336 394.035 586.336 382.053V360.268L606.84 349.217C618.116 343.138 627.57 338.075 627.844 337.966C628.118 337.856 628.344 348.005 628.344 360.516ZM1350.33 382.732C1350.33 407.462 1349.55 427.695 1348.59 427.695C1345.83 427.695 1311.72 409.126 1309.17 406.238C1305.84 402.466 1305.65 365.152 1308.93 361.252C1310.85 358.975 1347.57 337.963 1349.91 337.798C1350.15 337.781 1350.34 358.002 1350.33 382.732ZM292.068 349.165C302.085 354.425 310.265 359.173 310.241 359.718C310.181 361.151 271.714 380.886 268.971 380.891C266.349 380.897 228.431 361.195 228.361 359.791C228.253 357.596 263.78 339.888 268.563 339.754C271.516 339.67 281.898 343.828 292.068 349.165ZM988.413 359.791C988.413 370.895 987.955 379.979 987.397 379.979C984.45 379.979 950.342 360.887 950.838 359.518C951.436 357.872 984.178 339.89 986.913 339.704C987.739 339.649 988.413 348.688 988.413 359.791ZM446.193 383.649C446.211 384.45 412.741 401.899 408.058 403.531C407.092 403.868 406.301 394.655 406.301 383.06V361.977L426.237 372.355C437.203 378.063 446.183 383.145 446.193 383.649ZM874.649 371.471C884.859 376.887 893.531 382.19 893.919 383.259C894.527 384.929 888.004 388.827 860.234 403.386C855.321 405.962 854.139 405.588 834.772 395.327C823.601 389.408 814.456 384.154 814.448 383.649C814.432 382.625 852.611 361.83 854.735 361.705C855.477 361.661 864.439 366.057 874.649 371.471ZM1283.47 370.131C1274.67 374.749 1265.44 379.245 1262.97 380.124C1260.49 381.003 1258.49 382.363 1258.53 383.145C1258.61 385.004 1300.51 406.247 1301.79 405.078C1302.33 404.584 1294.17 399.768 1283.66 394.375C1273.15 388.981 1264.55 384.154 1264.55 383.649C1264.55 383.145 1273.08 378.313 1283.51 372.91C1293.94 367.508 1302.47 362.759 1302.47 362.357C1302.47 360.621 1298.53 362.234 1283.47 370.131ZM338.562 373.974L358.292 384.486V406.091C358.292 417.972 357.674 427.695 356.92 427.695C356.164 427.695 346.712 423.107 335.916 417.497L316.284 407.3V385.38C316.284 373.326 316.858 363.462 317.558 363.462C318.259 363.462 327.71 368.191 338.562 373.974ZM787.711 373.097C797.977 378.395 806.362 383.145 806.344 383.649C806.326 384.154 796.972 389.337 785.558 395.166L764.806 405.764L744.588 395.166C733.47 389.337 724.37 384.117 724.368 383.569C724.356 381.442 759.631 363.788 764.206 363.629C766.867 363.537 777.443 367.798 787.711 373.097ZM944.405 384.283C944.405 401.866 943.86 405.522 940.904 407.789C937.083 410.719 905.137 427.695 903.443 427.695C902.038 427.695 902.152 391.093 903.573 386.244C904.637 382.602 936.141 364.016 941.904 363.629C943.768 363.504 944.405 368.76 944.405 384.283ZM1214.46 385.066V406.671L1194.73 417.183C1183.87 422.966 1174.42 427.695 1173.72 427.695C1173.02 427.695 1172.45 417.838 1172.45 405.79V383.883L1191.95 373.69C1202.68 368.083 1212.13 363.489 1212.96 363.478C1213.78 363.469 1214.46 373.185 1214.46 385.066ZM88.2205 407.966L88.1985 430.448L67.9226 441.038C56.7705 446.861 47.3507 451.355 46.9906 451.025C45.4723 449.634 45.9844 408.842 47.5347 407.469C49.009 406.166 86.3962 385.802 87.7404 385.571C88.0165 385.523 88.2305 395.601 88.2205 407.966ZM742.512 396.876C752.334 402.13 760.369 406.939 760.369 407.559C760.369 408.479 729.603 425.238 723.966 427.389C723.084 427.727 722.362 418.848 722.362 407.66C722.362 396.474 722.878 387.32 723.508 387.32C724.14 387.32 732.692 391.62 742.512 396.876ZM808.378 407.508C808.378 418.611 807.782 427.695 807.054 427.695C805.628 427.695 775.044 411.714 770.817 408.761C768.951 407.456 773.258 404.346 786.82 397.203C797.026 391.827 806.052 387.406 806.878 387.375C807.704 387.346 808.378 396.404 808.378 407.508ZM1102.7 396.634C1112.45 401.756 1120.44 406.66 1120.44 407.528C1120.44 408.935 1086.04 427.695 1083.47 427.695C1082.9 427.695 1082.43 418.611 1082.43 407.508C1082.43 396.404 1083 387.32 1083.69 387.32C1084.39 387.32 1092.94 391.512 1102.7 396.634ZM672.852 403.292C668.72 404.698 669.856 411.178 674.235 411.178C676.371 411.178 678.728 410.273 679.472 409.167C681.192 406.616 676.173 402.163 672.852 403.292ZM786.922 420.354C797.576 425.906 806.294 430.861 806.294 431.366C806.294 432.133 770.889 451.234 766.096 453.053C764.392 453.701 724.428 432.858 724.388 431.3C724.346 429.707 763.172 409.455 765.462 409.875C766.612 410.088 776.27 414.803 786.922 420.354ZM312.283 431.366C312.283 442.469 311.767 451.554 311.137 451.554C308.379 451.554 274.28 432.274 274.752 430.98C275.326 429.408 308.363 411.288 310.783 411.22C311.607 411.197 312.283 420.263 312.283 431.366ZM517.465 420.813C527.791 426.112 536.244 430.861 536.248 431.366C536.254 431.871 526.879 437.075 515.412 442.932L494.564 453.578L474.417 442.989C463.336 437.163 454.503 431.77 454.791 431.003C455.803 428.29 489.385 411.415 494.004 411.297C496.583 411.231 507.139 415.515 517.465 420.813ZM1238.25 420.74C1248.27 426 1256.46 430.78 1256.46 431.366C1256.46 432.608 1220.79 451.554 1218.45 451.554C1217.58 451.554 1216.75 442.469 1216.6 431.366C1216.45 420.031 1217.14 411.178 1218.18 411.178C1219.2 411.178 1228.23 415.482 1238.25 420.74ZM561.105 466.436C548.027 473.388 538.521 479.077 539.983 479.079C541.443 479.081 552.019 474.052 563.486 467.902L584.334 456.724L606.014 467.902C617.938 474.052 628.804 479.082 630.164 479.082C631.523 479.082 641.254 474.54 651.79 468.988C662.326 463.437 671.668 458.895 672.55 458.895C673.433 458.895 674.479 463.642 674.875 469.447C675.565 479.534 675.613 479.407 675.975 466.586C676.183 459.208 675.679 453.521 674.853 453.949C674.027 454.376 663.723 459.792 651.955 465.986C640.184 472.18 630.174 477.247 629.708 477.247C629.244 477.247 618.966 471.971 606.874 465.522L584.884 453.796L561.105 466.436ZM922.82 465.65C910.4 472.285 900.69 478.13 901.244 478.636C901.798 479.145 911.71 474.498 923.272 468.309C934.835 462.123 944.681 457.059 945.151 457.059C945.623 457.059 955.597 462.108 967.317 468.278C979.039 474.448 989.055 479.106 989.575 478.629C990.095 478.15 982.17 473.367 971.964 467.999C961.758 462.631 951.606 457.192 949.405 455.912C945.877 453.861 942.736 455.011 922.82 465.65ZM1102.89 465.678C1090.49 472.334 1080.8 478.196 1081.35 478.702C1081.9 479.209 1091.78 474.647 1103.31 468.563L1124.26 457.504L1124.97 468.752L1125.67 480L1126.05 466.694C1126.27 459.375 1126.22 453.429 1125.94 453.481C1125.66 453.53 1115.29 459.019 1102.89 465.678ZM1283.04 465.881C1270.7 472.538 1260.99 478.337 1261.46 478.769C1261.93 479.198 1271.56 474.696 1282.88 468.765C1294.19 462.831 1304.13 457.7 1304.98 457.36C1305.82 457.019 1315.89 461.769 1327.34 467.913C1338.8 474.056 1349.49 479.082 1351.1 479.082C1352.71 479.082 1362.46 474.549 1372.76 469.009C1383.06 463.468 1392.16 458.926 1392.99 458.915C1393.82 458.904 1394.49 463.437 1394.49 468.988C1394.49 474.54 1395.39 479.082 1396.49 479.082C1398.56 479.082 1399.38 456.648 1397.37 454.809C1396.76 454.246 1386.03 459.124 1373.52 465.652L1350.78 477.519L1329.13 466.122C1317.22 459.854 1307.02 454.512 1306.47 454.253C1305.92 453.993 1295.38 459.225 1283.04 465.881ZM222.266 467.153C222.266 473.883 223.138 479.082 224.267 479.082C225.367 479.082 226.267 474.54 226.267 468.988C226.267 463.437 226.807 458.895 227.465 458.895C228.125 458.895 237.175 463.49 247.579 469.108C257.983 474.725 267.391 479.047 268.487 478.712C270.721 478.029 228.023 455.224 224.511 455.224C223.082 455.224 222.266 459.561 222.266 467.153Z" fill="white" fill-opacity="0.15"/>
</svg>
